<?xml version="1.0" standalone="no"?>
<!DOCTYPE svg PUBLIC "-//W3C//DTD SVG 20010904//EN"
 "http://www.w3.org/TR/2001/REC-SVG-20010904/DTD/svg10.dtd">
<svg version="1.0" xmlns="http://www.w3.org/2000/svg"
 width="228.000000pt" height="198.000000pt" viewBox="0 0 228.000000 198.000000"
 preserveAspectRatio="xMidYMid meet">
<metadata>
Created by potrace 1.16, written by Peter Selinger 2001-2019
</metadata>
<g transform="translate(0.000000,198.000000) scale(0.100000,-0.100000)"
fill="#000000" stroke="none">
<path d="M1531 1854 c-14 -13 -29 -20 -35 -17 -6 3 -8 3 -4 -2 4 -4 -3 -15
-15 -25 -18 -15 -19 -20 -8 -34 7 -9 11 -23 7 -31 -3 -8 -1 -15 4 -15 6 0 10
-22 10 -49 0 -34 -5 -53 -17 -62 -17 -13 -17 -12 -4 6 15 20 15 20 -5 1 -13
-13 -15 -20 -6 -23 15 -6 15 -17 1 -66 -5 -21 -14 -35 -19 -32 -5 3 -11 -4
-15 -15 -3 -11 -13 -20 -21 -20 -8 0 -14 -4 -14 -10 0 -5 -7 -10 -15 -10 -8 0
-15 5 -15 11 0 17 -98 4 -120 -16 -23 -21 -33 -19 -27 4 3 12 -3 27 -13 36
-29 27 -31 51 -3 66 31 17 56 63 59 109 3 33 2 34 -12 15 -9 -11 -21 -27 -27
-35 -7 -8 -29 -28 -50 -43 l-37 -28 -7 33 c-6 31 -7 31 -13 9 -3 -14 -19 -32
-35 -41 -36 -20 -56 -88 -30 -102 14 -8 22 -38 9 -38 -20 0 -48 28 -74 73 -31
55 -78 110 -97 114 -6 1 -14 -4 -17 -13 -4 -10 -2 -13 6 -8 8 5 9 2 5 -10 -4
-10 -3 -15 3 -11 9 6 12 2 14 -27 1 -7 7 -19 14 -26 6 -7 12 -23 12 -35 -1
-21 -1 -21 -23 4 -13 14 -28 24 -35 21 -7 -2 -12 1 -12 7 0 6 -5 11 -10 11 -7
0 -6 -8 2 -22 7 -13 11 -26 10 -30 -1 -5 2 -8 8 -8 21 0 40 -59 36 -114 -3
-31 -7 -60 -11 -66 -10 -17 -23 -11 -30 13 -8 25 -71 88 -79 79 -3 -3 -6 0 -6
6 0 6 -7 9 -15 6 -8 -4 -15 -1 -15 5 0 6 -6 8 -14 5 -8 -3 -17 -1 -20 4 -3 6
-15 8 -26 5 -12 -3 -20 0 -20 7 0 7 -8 9 -22 4 -31 -9 -32 -11 -15 -28 8 -8
17 -12 21 -9 3 4 6 1 6 -5 0 -6 6 -9 13 -6 16 6 54 -22 44 -33 -5 -4 -31 -8
-58 -8 -37 0 -49 -4 -49 -15 0 -13 -1 -13 -11 0 -9 13 -10 13 -6 0 2 -8 11
-14 21 -12 9 2 16 -2 16 -7 0 -6 6 -8 14 -5 7 3 20 -1 27 -9 8 -7 20 -12 28
-9 8 3 11 0 7 -7 -5 -7 -1 -9 8 -5 12 4 16 0 16 -16 0 -16 -4 -20 -15 -16 -8
3 -15 1 -15 -5 0 -6 -4 -7 -10 -4 -5 3 -10 1 -10 -6 0 -7 -10 -9 -25 -7 -14 3
-26 1 -26 -3 -1 -5 -2 -13 -3 -19 0 -5 -5 -10 -9 -9 -13 1 -67 -53 -61 -62 2
-4 -4 -12 -13 -18 -10 -6 -13 -11 -7 -11 16 0 75 65 67 75 -5 4 -3 5 4 1 7 -4
24 1 38 10 15 10 25 12 25 5 0 -6 -4 -11 -9 -11 -23 0 -121 -104 -142 -150
-12 -27 -26 -47 -30 -45 -4 3 -5 -5 -1 -17 3 -13 1 -19 -5 -15 -7 5 -9 -1 -6
-14 5 -17 12 -9 39 41 18 35 41 71 50 81 19 21 44 25 44 8 0 -5 5 -7 10 -4 6
4 9 1 8 -7 -2 -7 2 -12 9 -11 7 2 10 -4 7 -12 -4 -8 -9 -15 -13 -15 -4 0 -15
-15 -25 -32 -17 -29 -14 -28 23 12 23 25 39 36 35 25 -16 -41 -16 -119 0 -140
14 -18 14 -17 4 17 -8 28 -8 44 1 67 12 29 77 101 91 101 4 0 10 -19 14 -41 5
-31 3 -46 -9 -59 -18 -19 -19 -43 -5 -71 9 -16 6 -22 -20 -37 -18 -10 -28 -23
-25 -31 3 -7 0 -20 -6 -27 -7 -9 -9 -33 -6 -61 4 -40 12 -54 52 -91 52 -50 66
-50 36 -1 -22 36 -29 109 -10 109 6 0 9 -6 6 -14 -4 -9 14 -36 42 -66 46 -49
48 -54 40 -86 -7 -24 -14 -31 -25 -27 -12 4 -14 -2 -13 -35 2 -22 -3 -47 -10
-56 -8 -9 -10 -26 -7 -44 5 -22 1 -33 -20 -52 -50 -47 -63 -93 -48 -169 8 -39
18 -39 41 -1 11 20 25 30 40 30 15 0 27 8 32 23 5 12 18 32 29 43 19 20 45
120 36 136 -2 4 0 9 6 13 5 3 10 15 10 26 0 28 24 72 60 107 17 17 30 41 30
55 0 13 8 35 18 48 20 26 35 58 37 76 0 6 8 20 18 30 9 11 28 46 41 78 l24 59
21 -34 c11 -19 21 -41 21 -49 0 -8 9 -25 21 -37 18 -19 21 -34 20 -107 -1 -77
2 -88 24 -115 13 -16 29 -41 35 -56 10 -28 7 -86 -5 -106 -4 -6 -4 -27 -1 -46
8 -38 5 -37 139 -55 73 -9 87 -14 87 -29 0 -10 5 -41 12 -69 l11 -50 27 42
c63 101 98 236 125 486 8 75 20 182 26 238 7 56 9 124 5 152 -4 32 -3 52 4 56
6 4 9 13 6 21 -3 7 -1 16 5 19 5 4 7 11 4 16 -4 5 -1 9 5 9 6 0 8 5 5 10 -3 6
-2 10 4 10 5 0 8 8 6 18 -1 9 2 22 7 29 5 7 7 16 4 22 -3 5 -1 22 6 38 6 15
12 30 13 33 1 3 5 12 8 20 4 8 8 42 10 76 2 33 7 65 11 72 4 6 4 27 0 47 -4
24 -3 35 6 35 10 0 10 62 -1 128 -3 15 -19 16 -19 1 0 -6 -9 -9 -20 -6 -11 3
-20 1 -20 -5 0 -6 -8 -8 -18 -6 -10 3 -24 -1 -31 -9 -7 -8 -20 -12 -28 -9 -9
4 -11 2 -7 -6 5 -8 2 -9 -10 -5 -11 5 -15 3 -10 -5 5 -8 2 -9 -10 -5 -10 4
-15 3 -11 -3 6 -9 -8 -14 -28 -11 -5 1 -6 -3 -2 -9 3 -5 0 -10 -7 -10 -9 0
-12 -14 -10 -50 3 -41 1 -49 -11 -44 -8 3 -14 13 -12 22 1 9 -3 20 -9 24 -8 5
-7 8 2 8 7 0 4 8 -8 20 -31 31 -25 135 10 170 9 9 6 46 -5 56 -7 7 -18 3 -34
-12z m-141 -614 c1 -25 7 -63 15 -85 8 -22 15 -53 15 -70 0 -16 6 -41 13 -56
8 -14 17 -59 21 -100 3 -40 11 -92 17 -113 8 -29 8 -45 -2 -63 -10 -18 -10
-35 0 -80 6 -32 16 -103 21 -158 6 -55 12 -106 15 -112 7 -20 -11 -15 -40 10
-30 25 -42 95 -24 129 13 23 0 47 -13 25 -14 -27 -37 -8 -43 36 -3 23 -7 79
-9 124 -2 46 -8 89 -13 95 -6 7 -13 32 -17 54 -4 32 -2 43 9 48 9 3 15 18 15
35 0 16 5 33 10 36 16 10 11 25 -8 25 -12 0 -27 20 -47 63 -21 43 -35 62 -47
61 -22 -2 -22 -3 -3 32 8 16 15 45 15 64 0 44 10 60 47 75 25 11 29 10 40 -9
7 -12 13 -41 13 -66z"/>
</g>
</svg>
